<?xml version="1.0" encoding="utf-8"?>
<svg viewBox="0 0 8700 2170" xmlns="http://www.w3.org/2000/svg" xmlns:xlink="http://www.w3.org/1999/xlink" xmlns:bx="https://boxy-svg.com">
  <defs>
    <linearGradient id="gradient-0-0" gradientUnits="userSpaceOnUse" x1="0" y1="0" x2="0" y2="2170" gradientTransform="matrix(0, -1, 3.5, 0, 7.5, 6163.5)" xlink:href="#gradient-0"/>
    <linearGradient id="gradient-0" bx:pinned="true">
      <title>the logo</title>
      <stop offset="0" style="stop-color: rgb(45, 56, 138);"/>
      <stop offset="1" style="stop-color: rgb(0, 174, 239);"/>
    </linearGradient>
  </defs>
  <g transform="matrix(1, 0, 0, 1, 0, 2.2737367544323206e-13)">
    <path stroke="none" fill-rule="evenodd" style="fill: url(#gradient-0-0); transform-box: fill-box; transform-origin: 50% 50%;" d="M 394.095 0.028 C 261.145 9.602 141.638 79.815 68.258 191.462 C 31.763 246.989 9.269 309.691 1.353 377.962 C 0.254 387.44 0.02 1783.462 0.02 1783.462 L 2.243 1799.563 C 19.492 1924.495 85.461 2030.71 188.694 2099.765 C 245.094 2137.492 306.015 2159.491 379.52 2168.675 C 392.039 2170.239 1771.225 2171.025 1799.468 2167.424 C 1948.809 2148.381 2077.345 2051.306 2136.578 1912.827 C 2155.027 1869.695 2165.851 1825.052 2169.521 1776.962 C 2170.319 1766.501 2169.807 387.564 2168.225 375.462 C 2161.633 325.036 2149.04 281.783 2128.615 239.408 C 2077.1 132.534 1982.038 51.246 1868.577 17.049 C 1845.177 9.996 1819.796 4.793 1791.52 1.252 C 1778.973 -0.319 400.104 -0.405 394.095 0.028 M 907.52 360.543 C 894.606 364.832 886.518 365.962 868.682 365.968 C 858.418 365.972 848.18 366.58 842.02 367.553 C 836.52 368.421 827.295 369.12 821.52 369.106 C 810.937 369.08 792.034 371.478 774.543 375.066 C 759.173 378.219 732.419 387.635 718.541 394.777 C 711.654 398.32 703.32 402.614 700.02 404.319 C 694.705 407.064 693.05 407.42 685.52 407.434 C 680.845 407.443 669.502 406.703 660.314 405.791 C 645.435 404.313 643.248 403.857 640.314 401.625 C 635.001 397.584 626.99 393.962 623.375 393.966 C 616.809 393.973 614.107 396.81 607.462 410.676 C 599.027 428.278 594.381 433.849 578.02 445.982 C 551.73 465.48 540.258 486.449 538.914 517.462 C 538.261 532.549 538.088 533.34 534.758 536.509 C 530.456 540.606 489.291 571.401 484.576 574.051 C 482.034 575.479 478.433 579.039 475.576 582.947 C 472.957 586.53 466.65 594.412 461.561 600.462 C 446.639 618.202 443.617 623.125 436.579 641.168 C 434.282 647.057 428.142 660.107 422.935 670.168 C 404.72 705.368 404.377 706.144 404.377 712.234 C 404.377 716.106 405.318 720.122 407.505 725.584 C 415.115 744.588 417.006 760.118 414.105 779.766 C 411.09 800.181 408.306 808.816 398.007 829.705 C 392.789 840.288 388.523 849.288 388.527 849.705 C 388.531 850.121 390.086 851.519 391.984 852.812 C 399.474 857.912 403.52 865.781 403.52 875.248 C 403.52 882.658 405.632 890.62 409.279 896.962 C 410.702 899.437 423.601 913.402 437.943 927.996 C 458.821 949.239 464.699 955.819 467.428 960.996 C 473.886 973.252 480.461 983.569 484.235 987.374 C 489.368 992.548 512.428 1009.846 526.719 1019.243 C 539.69 1027.772 560.383 1039.845 573.804 1046.715 C 584.831 1052.36 591.344 1052.781 601.559 1048.511 C 621.722 1040.083 624.134 1039.767 666.02 1040.072 C 705.354 1040.358 703.141 1040.701 734.498 1029.443 C 756.192 1021.654 767.538 1018.595 782.466 1016.513 C 808.447 1012.89 812.928 1014.886 824.99 1035.462 C 830.568 1044.977 833.655 1048.444 839 1051.191 C 842.635 1053.06 843.891 1053.164 853.5 1052.386 C 859.286 1051.917 869.87 1051.518 877.02 1051.498 C 888.523 1051.466 890.596 1051.727 895.02 1053.766 C 901.068 1056.552 904.985 1060.123 907.85 1065.462 C 912.154 1073.483 909.939 1092.819 900.804 1126.962 C 895.103 1148.275 896.02 1159.315 904.563 1172.213 C 906.217 1174.71 915.459 1185.238 925.1 1195.608 C 934.741 1205.978 944.85 1217.387 947.565 1220.962 C 957.58 1234.149 971.554 1272.554 975.946 1298.962 C 977.364 1307.487 978.523 1315.468 978.522 1316.697 C 978.521 1317.926 980.095 1323.64 982.02 1329.393 C 987.423 1345.542 986.493 1353.967 977.983 1365.969 C 959.195 1392.467 950.406 1421.856 948.826 1463.462 C 947.968 1486.056 949.199 1489.834 967.29 1520.122 C 984.976 1549.731 993.475 1568.056 997.493 1585.24 C 998.551 1589.762 1001.036 1604.712 1003.016 1618.462 C 1007.142 1647.115 1012.308 1671.654 1015.809 1679.238 C 1017.136 1682.111 1021.224 1688.166 1024.895 1692.692 C 1035.112 1705.294 1044.809 1720.838 1053.446 1738.462 C 1068.057 1768.273 1071.332 1779.231 1070.167 1794.398 C 1068.59 1814.913 1076.429 1830.425 1092.02 1837.639 C 1101.465 1842.009 1110.804 1841.609 1136.56 1835.732 C 1160.947 1830.168 1176.585 1827.966 1191.821 1827.951 C 1203.918 1827.94 1224.605 1825.145 1236.311 1821.941 C 1247.959 1818.753 1256.103 1814.042 1267.053 1804.16 C 1288.105 1785.158 1309.872 1759.065 1336.038 1721.462 C 1357.114 1691.173 1360.436 1682.961 1361.397 1658.785 C 1361.935 1645.246 1362.296 1642.723 1364.047 1640.285 C 1366.587 1636.747 1383.282 1628.263 1389.48 1627.36 C 1396.407 1626.352 1401.11 1623.518 1403.976 1618.628 C 1409.88 1608.554 1412.947 1585.173 1410.636 1567.871 C 1410.004 1563.146 1408.145 1553.781 1406.504 1547.061 C 1400.372 1521.948 1403.461 1513.115 1422.224 1502.122 C 1427.736 1498.893 1429.838 1496.89 1433.35 1491.523 C 1439.852 1481.586 1449.062 1475.297 1464.386 1470.328 C 1485.245 1463.564 1502.436 1446.711 1509.642 1425.962 C 1512.189 1418.629 1512.53 1407.281 1511.049 1379.123 C 1510.391 1366.601 1510.567 1361.459 1512.012 1351.123 C 1514.222 1335.306 1513.64 1332.721 1505.618 1322.729 C 1495.125 1309.66 1491.4 1299.873 1489.671 1280.83 C 1488.886 1272.182 1487.989 1268.451 1484.863 1260.83 C 1481.751 1253.243 1481.022 1250.226 1481.032 1244.962 C 1481.043 1238.572 1481.226 1238.133 1491.867 1218.962 C 1505.71 1194.022 1510.905 1186.266 1524.029 1170.94 C 1553.656 1136.343 1579.341 1112.099 1613.52 1086.47 C 1634.687 1070.598 1648.476 1056.187 1659.132 1038.802 C 1691.582 985.858 1711.796 945.605 1714.542 928.462 C 1716.369 917.053 1714.219 904.443 1709.861 901.016 C 1705.981 897.964 1701.809 898.473 1689.549 903.494 C 1680.789 907.082 1673.853 908.944 1656.252 912.433 C 1610.257 921.552 1588.261 925.198 1582.673 924.63 C 1572.555 923.601 1567.217 917.666 1564.296 904.193 C 1563.266 899.446 1561.725 894.09 1560.871 892.29 C 1558.964 888.271 1532.59 862.412 1510.859 843.256 C 1492.352 826.941 1487.842 821.085 1483.945 808.31 C 1478.813 791.483 1473.96 783.156 1462.47 771.462 C 1451.701 760.502 1449.584 755.675 1448.526 739.667 C 1446.962 715.994 1441.287 702.536 1425.844 685.88 C 1419.818 679.382 1418.401 677.111 1415.681 669.593 C 1413.942 664.789 1412.52 660.447 1412.52 659.945 C 1412.52 656.995 1408.678 648.739 1403.877 641.374 C 1395.443 628.435 1379.52 593.295 1379.52 587.622 C 1379.52 586.829 1381.959 585.204 1385.003 583.969 L 1390.485 581.744 L 1394.673 569.103 C 1398.407 557.833 1398.862 555.432 1398.866 546.962 C 1398.87 536.872 1398.691 535.983 1392.392 514.885 L 1388.338 501.308 L 1371.179 500.128 C 1359.279 499.31 1350.955 498.163 1344.02 496.385 C 1336.457 494.446 1331.461 493.815 1323.52 493.796 C 1312.34 493.769 1306.297 495.119 1293.555 500.49 C 1283.046 504.92 1277.899 504.184 1224.141 490.57 L 1178.263 478.95 L 1171.958 473.053 C 1163.226 464.885 1156.953 462.565 1145.52 463.276 C 1134.36 463.97 1118.851 468.854 1113.842 473.253 C 1108.88 477.609 1107.54 481.413 1106.512 494.062 C 1105.561 505.766 1103.186 513 1099.68 514.876 C 1098.564 515.474 1096.034 515.962 1094.056 515.962 C 1088.015 515.962 1037.853 496.324 1032.034 491.681 C 1029.914 489.989 1028.111 487.248 1027.083 484.153 C 1023.632 473.762 1013.402 468.876 986.64 464.84 C 964.503 461.501 948.743 456.151 933.608 446.837 L 925.347 441.753 L 927.731 439.107 C 929.043 437.652 932.961 433.35 936.438 429.547 C 947.013 417.981 948.151 411.929 941.969 400.13 C 937.225 391.074 937.439 386.29 942.899 379.281 C 949.093 371.331 947.418 368.216 936.411 367.218 C 931.67 366.788 930.274 366.235 928.991 364.278 C 926.799 360.932 921.599 357.962 918.02 358.01 C 916.37 358.033 911.645 359.172 907.52 360.543 M 1668.02 1367.799 C 1663.315 1370.668 1659.34 1375.787 1652.615 1387.636 C 1649.191 1393.67 1644.394 1400.75 1641.955 1403.369 C 1639.516 1405.987 1637.51 1408.88 1637.498 1409.796 C 1637.425 1415.32 1628.777 1427.045 1622.02 1430.781 C 1620.37 1431.694 1610.47 1436.045 1600.02 1440.451 L 1581.02 1448.462 L 1576.332 1457.794 C 1573.753 1462.926 1570.94 1470.215 1570.082 1473.991 C 1568.061 1482.875 1568.092 1496.313 1570.157 1506.715 C 1572.211 1517.065 1571.311 1522.314 1565.16 1535.839 C 1557.129 1553.498 1554.938 1563.973 1556.573 1576.902 C 1557.874 1587.194 1559.698 1593.166 1566.344 1608.899 C 1570.674 1619.15 1573.087 1623.475 1576.52 1627.138 C 1581.646 1632.608 1591.737 1638.962 1595.299 1638.962 C 1596.617 1638.962 1601.217 1637.414 1605.52 1635.522 C 1609.823 1633.63 1616.177 1631.568 1619.64 1630.94 C 1627.257 1629.559 1630.393 1628.022 1635.004 1623.411 C 1641.583 1616.832 1645.559 1606.323 1652.956 1575.962 C 1655.435 1565.787 1660.88 1546.437 1665.057 1532.962 C 1674.258 1503.274 1678.749 1486.055 1681.095 1471.462 C 1682.552 1462.402 1683.728 1458.698 1687.761 1450.462 L 1692.659 1440.462 L 1692.263 1417.462 C 1691.915 1397.18 1691.61 1393.676 1689.685 1387.812 C 1686.002 1376.596 1677.564 1365.951 1672.366 1365.966 C 1671.626 1365.968 1669.67 1366.793 1668.02 1367.799"/>
    <g>
      <g transform="matrix(1.169326, 0, 0, 1.169326, -425.949524, 176.297089)" style="">
        <path stroke="none" fill-rule="evenodd" style="fill: url(#gradient-0-0); transform-box: fill-box; transform-origin: 50% 50%;" d="M 3177.328 1.237 C 3154.729 6.259 3134.281 19.592 3119.894 38.685 C 3111.699 49.56 3108.861 54.889 3092.692 89.767 C 3066.983 145.223 2676.354 989.849 2673.349 1007.079 C 2667.768 1039.084 2677.804 1067.957 2702.95 1092.243 C 2735.476 1123.656 2784.879 1132.239 2823.312 1113.154 C 2845.407 1102.182 2861.583 1084.199 2873.763 1057.065 C 2890.879 1018.937 3199.223 350.527 3199.223 350.527 L 3201.402 354.83 C 3204.985 361.904 3689.816 1408.983 3693.287 1416.133 C 3714.971 1460.81 3749.583 1484.633 3792.812 1484.633 C 3839.585 1484.633 3879.896 1454.102 3891.476 1409.907 C 3896.322 1391.413 3895.822 1367.244 3890.192 1347.815 C 3887.204 1337.506 3299.43 70.633 3296.794 65.133 C 3280.884 31.947 3256.972 11.07 3224.987 2.443 C 3214.567 -0.368 3187.617 -1.05 3177.328 1.237 M 4585.629 0.62 C 4545.902 2.883 4506.487 9.109 4465.312 19.627 C 4349.343 49.25 4257.557 108.114 4190.867 195.633 C 4146.418 253.965 4119.981 314.993 4107.91 387.133 C 4100.686 430.305 4098.627 492.21 4103.738 512.526 C 4112.045 545.539 4138.789 573.345 4172.447 583.962 C 4213.413 596.884 4261.896 581.051 4287.386 546.425 C 4302.276 526.199 4306.191 511.557 4307.789 470.133 C 4308.835 442.987 4310.801 427.599 4315.963 406.133 C 4326.353 362.924 4344.534 328.599 4372.249 299.869 C 4386.293 285.311 4394.808 278.252 4411.812 267.075 C 4443.031 246.553 4469.47 233.634 4502.812 222.608 C 4540.768 210.055 4576.451 204.747 4614.812 205.947 C 4663.259 207.462 4710.571 218.953 4760.452 241.319 C 4826.565 270.964 4871.609 317.873 4892.787 379.133 C 4912.513 436.191 4915.994 500.502 4902.682 561.924 C 4893.305 605.185 4881.076 631.759 4858.709 657.474 C 4842.043 676.635 4813.281 696.655 4773.812 716.569 C 4728.491 739.434 4697.628 750.86 4617.312 774.505 C 4471.523 817.424 4393.581 849.944 4324.312 896.751 C 4293.87 917.322 4271.653 935.892 4245.196 962.88 C 4193.77 1015.336 4132.244 1149.133 4132.244 1149.133 C 4116.328 1196.399 4106.912 1247.853 4102.874 1309.633 C 4098.421 1377.778 4099.116 1396.709 4106.854 1417.912 C 4119.068 1451.377 4146.279 1474.618 4182.812 1482.786 L 4193.312 1485.133 L 4634.312 1485.133 L 4642.444 1482.961 C 4662.536 1477.594 4678.134 1468.351 4692.403 1453.355 C 4717.882 1426.579 4726.687 1390.033 4716.298 1354.183 C 4706.295 1319.664 4678.689 1293.03 4642.987 1283.454 C 4631.451 1280.36 4313.689 1279.633 4313.689 1279.633 L 4314.356 1274.883 C 4322.491 1216.876 4344.637 1164.509 4378.55 1123.092 C 4407.084 1088.243 4446.11 1059.367 4494.873 1037.022 C 4542.638 1015.135 4595.292 996.445 4683.312 970.134 C 4768.69 944.614 4817.721 926.397 4867.717 901.621 C 4894.893 888.154 4911.749 878.521 4933.312 864.135 C 5026.17 802.181 5083.118 716.224 5105.716 603.906 C 5122.673 519.627 5119.589 414.764 5097.9 338.078 C 5065.069 221.999 4992.066 133.592 4875.405 68.634 C 4807.468 30.806 4732.992 7.808 4658.64 1.697 C 4640.44 0.201 4602.746 -0.355 4585.629 0.62 M 5840.312 0.228 C 5712.303 6.645 5604.268 41.442 5522.812 102.492 C 5488.735 128.032 5457.139 160.058 5433.693 192.824 C 5396.756 244.444 5375.117 301.725 5367.278 368.633 C 5365.036 387.772 5364.266 428.338 5365.732 450.159 C 5368.801 495.867 5375.575 530.461 5387.909 563.404 C 5423.615 658.781 5502.622 733.03 5622.667 784.024 C 5676.202 806.766 5723.865 821.791 5840.312 852.633 C 5981.178 889.943 6041.458 910.528 6089.812 937.833 C 6108 948.103 6119.257 956.238 6131.373 967.866 C 6150.931 986.638 6162.882 1007.549 6168.961 1033.633 C 6171.501 1044.532 6172.531 1072.82 6170.923 1087.537 C 6164.531 1146.07 6137.433 1189.761 6086.833 1223.118 C 6047.754 1248.88 5991.84 1266.805 5925.737 1274.762 C 5910.255 1276.625 5901.882 1276.992 5873.312 1277.056 C 5851.728 1277.105 5834.565 1276.649 5826.312 1275.808 C 5735.27 1266.529 5660.196 1241.452 5601.857 1200.833 C 5585.899 1189.722 5573.051 1178.868 5555.312 1161.513 C 5536.555 1143.162 5530.153 1138.206 5519.482 1133.777 C 5490.826 1121.884 5447.991 1127.499 5417.161 1147.191 C 5410.041 1151.739 5398.454 1162.875 5393.242 1170.179 C 5373.957 1197.204 5369.53 1237.275 5382.364 1268.633 C 5388.735 1284.201 5398.024 1296.739 5416.457 1314.656 C 5472.745 1369.368 5533.041 1407.576 5609.363 1436.898 C 5698.153 1471.01 5786.103 1486.072 5886.285 1484.322 C 5986.327 1482.574 6066.124 1464.348 6147.312 1424.7 C 6214.92 1391.683 6262.654 1353.822 6301.206 1302.633 C 6342.094 1248.343 6366.297 1188.16 6376.007 1116.633 C 6379.035 1094.327 6379.292 1043.187 6376.49 1020.633 C 6370.913 975.751 6361.755 943.48 6344.846 909.133 C 6319.53 857.708 6280.383 814.801 6224.266 776.972 C 6179.403 746.73 6132.221 725.077 6055.362 699.459 C 6016.391 686.47 5985.081 677.519 5924.641 662.086 C 5861.248 645.899 5837.601 639.419 5804.016 629.03 C 5699.235 596.619 5639.185 566.244 5607.046 529.398 C 5576.636 494.533 5566.029 451.731 5573.402 393.633 C 5577.304 362.886 5586.815 336.657 5603.017 311.959 C 5613.218 296.41 5633.834 276.004 5650.699 264.765 C 5693.232 236.42 5759.301 215.106 5826.312 208.113 C 5834.562 207.252 5854.587 206.163 5870.812 205.693 C 5897.412 204.922 5901.246 204.593 5909.812 202.346 C 5921.429 199.298 5928.515 196.214 5938.03 190.066 C 5957.369 177.569 5974.92 152.629 5981.259 128.633 C 5983.586 119.826 5984.412 99.653 5982.844 89.934 C 5978.304 61.791 5960.344 32.921 5937.907 17.702 C 5926.646 10.064 5914.391 5.053 5899.783 2.114 C 5892.383 0.626 5855.635 -0.54 5840.312 0.228 M 7679.312 0.307 C 7655.85 3.235 7635.894 13.396 7619.22 30.903 C 7607.017 43.716 7601.818 52.965 7590.215 82.497 C 7562.803 152.265 7174.26 1105.454 7174.26 1105.454 C 7174.26 1105.454 6906.589 445.083 6904.12 440.133 C 6886.977 405.772 6858.501 385.931 6822.305 383.124 C 6789.413 380.573 6751.86 396.372 6731.933 421.143 C 6715.962 440.996 6709.003 462.698 6710.13 489.133 C 6711.126 512.468 7078.148 1417.3 7082.06 1425.133 C 7088.095 1437.217 7094.458 1446.208 7103.312 1455.164 C 7143.928 1496.25 7208.202 1495.314 7248.781 1453.045 C 7257.5 1443.963 7266.249 1431.363 7270.765 1421.384 C 7274.141 1413.924 7792.276 132.863 7795.043 122.875 C 7796.832 116.417 7798.647 112.791 7798.698 98.61 C 7799.979 98.61 7797.338 81.133 7797.308 81.133 L 7793.69 70.871 C 7788.947 57.42 7782.16 46.287 7772.312 35.804 C 7753.999 16.31 7731.049 4.276 7705.378 0.705 C 7698.042 -0.315 7685.796 -0.502 7679.312 0.307"/>
        <ellipse cx="6263.269" cy="250.817" rx="104.216" ry="104.216" style="fill: url(#gradient-0-0);"/>
        <ellipse style="fill: url(#gradient-0-0);" cx="5016.033" cy="1381.787" rx="104.216" ry="104.216"/>
        <ellipse style="fill: url(#gradient-0-0);" cx="6658.986" cy="103.251" rx="104.216" ry="104.216"/>
        <ellipse style="fill: url(#gradient-0-0);" cx="2610.379" cy="1378.715" rx="104.216" ry="104.216"/>
      </g>
    </g>
  </g>
</svg>