<svg width="1334" height="1331" viewBox="0 0 1334 1331" fill="none" xmlns="http://www.w3.org/2000/svg">
<path d="M1088.88 0C1104.59 2.84487 1120.45 5.03024 1135.97 8.66391C1237.07 32.2892 1317.02 120.015 1330.72 222.236C1332.54 235.954 1333.44 249.778 1333.43 263.616C1333.58 531.848 1332.55 800.08 1334 1068.3C1334.66 1190.09 1249.83 1302.85 1121.28 1326.92C1105.21 1329.94 1088.52 1330.73 1072.13 1330.8C802.181 1331.02 532.224 1331.06 262.263 1330.92C131.571 1330.89 24.9589 1239.7 3.73737 1110.48C2.58642 1103.3 1.29321 1096.14 0 1088.98V244.891C0.944042 241.141 2.35364 237.43 2.76747 233.615C14.8202 122.032 93.7317 32.897 203.034 7.88804C216.845 4.73282 230.915 2.58624 244.882 0H1088.88ZM587.699 226.736C576.991 223.762 569.283 219.572 561.834 219.934C542.873 220.75 523.99 222.875 505.321 226.296C483.828 230.357 461.507 233.848 441.851 242.706C424.496 250.465 409.339 249.922 393.433 243.65C383.979 239.926 379.389 242.357 374.487 250.452C369.586 258.547 364.142 266.81 356.887 272.331C341.704 283.892 333.454 298.077 331.32 317.06C330.609 323.397 325.979 330.302 321.207 334.957C311.055 344.85 297.089 351.69 289.304 362.953C274.652 384.057 262.832 407.333 250.882 430.234C248.542 434.76 249.835 442.222 251.594 447.627C257.219 464.981 255.771 481.739 249.796 498.537C245.684 510.175 236.696 519.098 246.098 534.745C252.46 545.348 255.939 557.93 265.651 567.073C272.595 573.603 280.911 579.771 285.049 587.905C299.869 616.69 327.57 628.961 353.382 643.638C357.766 646.121 364.18 646.16 369.495 645.668C383.579 644.375 397.584 642.28 411.602 640.328C424.328 638.569 437.117 637.043 449.713 634.573C462.309 632.104 474.814 628.263 487.462 625.522C495.454 623.828 501.92 626.427 505.567 634.444C511.063 646.522 519.792 649.496 533.099 647.259C554.709 643.625 561.809 652.25 557.425 673.652C556.558 677.88 556.131 682.303 554.709 686.311C547.661 705.346 552.122 721.226 567.473 734.079C583.909 747.851 591.837 766.407 597.023 786.425C599.182 794.765 598.743 804.05 602.105 811.77C607.588 824.365 602.907 833.456 597.1 844.357C580.883 874.822 575.116 905.392 595.716 937.694C605.17 952.526 610.95 970.695 614.352 988.126C619.111 1012.57 624.697 1035.39 639.802 1056.36C648.919 1069.01 654.221 1086.11 656.213 1101.8C659.109 1124.77 669.313 1134.51 692.125 1130.47C709.118 1127.47 726.292 1125.3 743.478 1123.53C760.057 1121.83 775.046 1117.06 785.87 1103.81C800.651 1085.7 815.885 1067.79 829.063 1048.53C834.844 1040.1 837.844 1028.69 838.801 1018.33C839.628 1009.28 843.094 1003.98 850.763 1002.44C863.993 999.854 868.868 990.88 869.088 979.268C869.32 969.039 866.967 958.772 866.501 948.492C866.256 942.285 865.208 933.543 868.57 930.233C878.916 920.263 890.283 910.474 903.022 904.163C919.122 896.185 936.076 877.732 931.304 854.016C929.726 846.18 931.524 837.671 931.666 829.447C931.731 825.567 933.127 820.498 931.214 818.21C920.415 805.201 917.57 789.464 915.165 773.739C914.143 767.054 914.066 758.985 916.885 753.166C933.606 718.743 960.44 692.686 990.598 670.406C1023.81 645.94 1038.63 609.914 1054.9 574.521C1056.28 571.508 1056.19 567.719 1056.37 564.266C1056.99 551.658 1052.94 549.447 1040.94 552.434C1020.85 557.465 1000.49 561.616 980.045 564.939C975.765 565.637 967.242 561.978 966.466 558.887C961.5 538.857 943.887 530.012 931.705 516.369C925.006 508.869 920.066 499.804 914.143 491.593C901.211 473.709 891.719 454.416 888.033 432.472C887.697 430.467 885.899 428.734 884.852 426.846C875.502 409.609 865.829 392.333 856.363 375.005C852.703 368.294 852.263 362.889 857.539 355.246C867.264 341.164 863.23 325.323 857.151 310.414C856.569 309.004 854.979 307.129 853.699 307C837.844 305.177 821.187 300.004 806.315 303.224C792.09 306.551 777.236 306.034 763.277 301.724C750.125 297.754 735.655 296.008 724.145 289.232C704.178 277.478 685.142 283.569 680.047 305.59C679.245 309.056 673.917 314.746 672.287 314.228C660.429 310.453 645.57 308.358 638.211 300.004C627.995 288.366 616.227 286.31 603.295 283.284C593.259 280.944 583.677 276.663 573.9 273.249L571.314 269.28C596.079 260.331 573.228 240.65 587.699 226.736ZM1043.84 872.857L1042.7 872.508C1042.42 867.749 1043.39 862.447 1041.58 858.374C1038.41 851.275 1033.53 844.938 1029.38 838.279C1024.34 843.012 1018.69 847.266 1014.39 852.594C1005.97 863.042 1002.22 876.853 987.3 882.336C966.298 890.094 962.031 899.146 963.195 921.931C963.557 929.017 963.401 936.983 960.608 943.216C953.754 958.306 954.815 972.505 961.345 987.014C965.69 996.647 970.204 1007.01 982.347 1007.51C989.324 1007.78 996.19 1005.7 1001.85 1001.61C1007.5 997.514 1011.63 991.643 1013.55 984.932C1020.76 960.944 1027.45 936.815 1034.05 912.646C1037.61 899.418 1040.58 886.086 1043.84 872.857Z" fill="#DBDBDB"/>
</svg>
