<svg width="1349" height="496" viewBox="0 0 1349 496" fill="none" xmlns="http://www.w3.org/2000/svg">
<mask id="mask0_163_3" style="mask-type:luminance" maskUnits="userSpaceOnUse" x="-91" y="0" width="1440" height="599">
<path d="M1349 0H-91V599H1349V0Z" fill="white"/>
</mask>
<g mask="url(#mask0_163_3)">
<g opacity="0.35">
<path d="M539.756 249.583C543.098 249.583 545.807 246.874 545.807 243.533C545.807 240.191 543.098 237.482 539.756 237.482C536.415 237.482 533.706 240.191 533.706 243.533C533.706 246.874 536.415 249.583 539.756 249.583Z" fill="white"/>
<path opacity="0.5" d="M687.992 178.49C689.662 178.49 691.017 177.136 691.017 175.465C691.017 173.794 689.662 172.439 687.992 172.439C686.321 172.439 684.966 173.794 684.966 175.465C684.966 177.136 686.321 178.49 687.992 178.49Z" fill="white"/>
<path opacity="0.5" d="M548.832 428.073C552.174 428.073 554.882 425.364 554.882 422.023C554.882 418.681 552.174 415.972 548.832 415.972C545.49 415.972 542.782 418.681 542.782 422.023C542.782 425.364 545.49 428.073 548.832 428.073Z" fill="white"/>
<path d="M309.84 497.654C311.511 497.654 312.866 496.3 312.866 494.629C312.866 492.958 311.511 491.604 309.84 491.604C308.17 491.604 306.815 492.958 306.815 494.629C306.815 496.3 308.17 497.654 309.84 497.654Z" fill="white"/>
<path opacity="0.2" d="M456.563 319.164C458.234 319.164 459.588 317.81 459.588 316.139C459.588 314.468 458.234 313.114 456.563 313.114C454.892 313.114 453.538 314.468 453.538 316.139C453.538 317.81 454.892 319.164 456.563 319.164Z" fill="white"/>
<path opacity="0.3" d="M737.908 322.189C739.578 322.189 740.933 320.835 740.933 319.164C740.933 317.493 739.578 316.139 737.908 316.139C736.237 316.139 734.882 317.493 734.882 319.164C734.882 320.835 736.237 322.189 737.908 322.189Z" fill="white"/>
<path opacity="0.2" d="M827.151 428.073C828.822 428.073 830.176 426.719 830.176 425.048C830.176 423.377 828.822 422.023 827.151 422.023C825.48 422.023 824.126 423.377 824.126 425.048C824.126 426.719 825.48 428.073 827.151 428.073Z" fill="white"/>
<path opacity="0.21" d="M1102.45 428.073C1104.12 428.073 1105.47 426.719 1105.47 425.048C1105.47 423.377 1104.12 422.023 1102.45 422.023C1100.77 422.023 1099.42 423.377 1099.42 425.048C1099.42 426.719 1100.77 428.073 1102.45 428.073Z" fill="white"/>
<path d="M456.563 101.346C458.234 101.346 459.588 99.9915 459.588 98.3207C459.588 96.6499 458.234 95.2954 456.563 95.2954C454.892 95.2954 453.538 96.6499 453.538 98.3207C453.538 99.9915 454.892 101.346 456.563 101.346Z" fill="white"/>
<path opacity="0.3" d="M199.42 202.692C201.091 202.692 202.445 201.337 202.445 199.667C202.445 197.996 201.091 196.641 199.42 196.641C197.749 196.641 196.395 197.996 196.395 199.667C196.395 201.337 197.749 202.692 199.42 202.692Z" fill="white"/>
<path d="M1032.87 6.05051C1034.54 6.05051 1035.89 4.69605 1035.89 3.02525C1035.89 1.35445 1034.54 0 1032.87 0C1031.19 0 1029.84 1.35445 1029.84 3.02525C1029.84 4.69605 1031.19 6.05051 1032.87 6.05051Z" fill="white"/>
</g>
<path d="M1170.51 226.894C1160.49 226.894 1152.36 218.767 1152.36 208.742C1152.36 198.718 1160.49 190.591 1170.51 190.591C1180.54 190.591 1188.66 198.718 1188.66 208.742C1188.66 218.767 1180.54 226.894 1170.51 226.894Z" fill="url(#paint0_linear_163_3)"/>
<path d="M1342.95 311.601C1339.61 311.601 1336.9 308.892 1336.9 305.551C1336.9 302.209 1339.61 299.5 1342.95 299.5C1346.29 299.5 1349 302.209 1349 305.551C1349 308.892 1346.29 311.601 1342.95 311.601Z" fill="url(#paint1_linear_163_3)"/>
<path d="M141.941 493.116C135.258 493.116 129.84 487.698 129.84 481.015C129.84 474.332 135.258 468.914 141.941 468.914C148.624 468.914 154.042 474.332 154.042 481.015C154.042 487.698 148.624 493.116 141.941 493.116Z" fill="url(#paint2_linear_163_3)"/>
</g>
<defs>
<linearGradient id="paint0_linear_163_3" x1="1170.51" y1="190.591" x2="1170.51" y2="226.894" gradientUnits="userSpaceOnUse">
<stop stop-color="#88E5BE"/>
<stop offset="1" stop-color="#1A1A32"/>
</linearGradient>
<linearGradient id="paint1_linear_163_3" x1="1342.95" y1="299.5" x2="1342.95" y2="311.601" gradientUnits="userSpaceOnUse">
<stop stop-color="#DD734F"/>
<stop offset="1" stop-color="#1A1A32"/>
</linearGradient>
<linearGradient id="paint2_linear_163_3" x1="141.941" y1="468.914" x2="141.941" y2="493.116" gradientUnits="userSpaceOnUse">
<stop stop-color="#B9AEDF"/>
<stop offset="1" stop-color="#1A1A32"/>
</linearGradient>
</defs>
</svg>
